# Blender 4.5.2 LTS
# www.blender.org
mtllib 未命名.mtl
o Cube
v -0.839223 3.356892 -3.356892
v -0.839223 -3.356892 -3.356892
v 0.839223 2.853359 -2.853359
v 0.839223 -2.853359 -2.853359
v -0.839223 3.356892 3.356892
v -0.839223 -3.356892 3.356892
v 0.839223 2.853359 2.853359
v 0.839223 -2.853359 2.853359
v 0.839223 -3.356892 3.356892
v 0.839223 3.356892 3.356892
v 0.839223 3.356892 -3.356892
v 0.839223 -3.356892 -3.356892
v 0.335689 -2.853359 2.853359
v 0.335689 2.853359 2.853359
v 0.335689 2.853359 -2.853359
v 0.335689 -2.853359 -2.853359
vn -0.0000 1.0000 -0.0000
vn -0.0000 -1.0000 -0.0000
vn -0.0000 -0.0000 1.0000
vn -0.0000 -0.0000 -1.0000
vn -1.0000 -0.0000 -0.0000
vn 1.0000 -0.0000 -0.0000
vt 0.875000 0.500000
vt 0.625000 0.750000
vt 0.625000 0.500000
vt 0.606250 0.981250
vt 0.606250 0.768750
vt 0.625000 0.000000
vt 0.375000 0.250000
vt 0.375000 0.000000
vt 0.375000 0.500000
vt 0.125000 0.750000
vt 0.125000 0.500000
vt 0.375000 0.750000
vt 0.625000 0.250000
vt 0.375000 1.000000
vt 0.393750 0.981250
vt 0.393750 0.768750
vt 0.625000 1.000000
vt 0.992557 0.979387
vt 0.009443 0.316827
vt 0.992557 0.316827
vt 0.875000 0.750000
vt 0.009443 0.979387
s 0
usemtl Material
f 5/1/1 11/2/1 1/3/1
f 7/4/2 15/5/2 3/5/2
f 10/6/3 6/7/3 9/8/3
f 2/9/2 9/10/2 6/11/2
f 1/3/4 12/12/4 2/9/4
f 5/13/5 2/9/5 6/7/5
f 7/4/6 9/14/6 8/15/6
f 4/16/6 11/2/6 3/5/6
f 3/5/6 10/17/6 7/4/6
f 8/15/6 12/12/6 4/16/6
f 8/15/4 14/4/4 7/4/4
f 4/16/1 13/15/1 8/15/1
f 3/5/3 16/16/3 4/16/3
f 5/1/1 10/21/1 11/2/1
f 7/4/2 14/4/2 15/5/2
f 10/6/3 5/13/3 6/7/3
f 2/9/2 12/12/2 9/10/2
f 1/3/4 11/2/4 12/12/4
f 5/13/5 1/3/5 2/9/5
f 7/4/6 10/17/6 9/14/6
f 4/16/6 12/12/6 11/2/6
f 3/5/6 11/2/6 10/17/6
f 8/15/6 9/14/6 12/12/6
f 8/15/4 13/15/4 14/4/4
f 4/16/1 16/16/1 13/15/1
f 3/5/3 15/5/3 16/16/3
usemtl 材质
f 15/18/6 13/19/6 16/20/6
f 15/18/6 14/22/6 13/19/6
o 棱角球
v 9.811243 -2.785131 -0.650032
v 11.826564 -1.245552 0.814167
v 9.041474 -1.245552 1.719112
v 7.320152 -1.245552 -0.650032
v 9.041474 -1.245552 -3.019176
v 11.826564 -1.245552 -2.114231
v 10.581012 1.245552 1.719112
v 7.795922 1.245552 0.814167
v 7.795922 1.245552 -2.114231
v 10.581012 1.245552 -3.019176
v 12.302334 1.245552 -0.650032
v 9.811243 2.785131 -0.650032
vn -0.0000 -1.0000 -0.0000
vn 0.7236 -0.4472 0.5257
vn -0.2764 -0.4472 0.8507
vn -0.8944 -0.4472 -0.0000
vn -0.2764 -0.4472 -0.8507
vn 0.7236 -0.4472 -0.5257
vn 0.2764 0.4472 0.8507
vn -0.7236 0.4472 0.5257
vn -0.7236 0.4472 -0.5257
vn 0.2764 0.4472 -0.8507
vn 0.8944 0.4472 -0.0000
vn -0.0000 1.0000 -0.0000
vt 0.181819 0.000000
vt 0.272728 0.157461
vt 0.090910 0.157461
vt 0.363637 0.000000
vt 0.454546 0.157461
vt 0.909091 0.000000
vt 1.000000 0.157461
vt 0.818182 0.157461
vt 0.727273 0.000000
vt 0.636364 0.157461
vt 0.545455 0.000000
vt 0.363637 0.314921
vt 0.181819 0.314921
vt 0.909091 0.314921
vt 0.727273 0.314921
vt 0.545455 0.314921
vt 0.000000 0.314921
vt 0.272728 0.472382
vt 0.090910 0.472382
vt 0.818182 0.472382
vt 0.636364 0.472382
vt 0.454546 0.472382
s 1
usemtl 材质.001
f 17/23/7 18/24/8 19/25/9
f 18/24/8 17/26/7 22/27/12
f 17/28/7 19/29/9 20/30/10
f 17/31/7 20/30/10 21/32/11
f 17/33/7 21/32/11 22/27/12
f 18/24/8 22/27/12 27/34/17
f 19/25/9 18/24/8 23/35/13
f 20/30/10 19/29/9 24/36/14
f 21/32/11 20/30/10 25/37/15
f 22/27/12 21/32/11 26/38/16
f 18/24/8 27/34/17 23/35/13
f 19/25/9 23/35/13 24/39/14
f 20/30/10 24/36/14 25/37/15
f 21/32/11 25/37/15 26/38/16
f 22/27/12 26/38/16 27/34/17
f 23/35/13 27/34/17 28/40/18
f 24/39/14 23/35/13 28/41/18
f 25/37/15 24/36/14 28/42/18
f 26/38/16 25/37/15 28/43/18
f 27/34/17 26/38/16 28/44/18
