# Blender 4.5.2 LTS
# www.blender.org
mtllib Phainon.mtl
o Cube
v 0.200000 3.000000 -2.000000
v 0.200000 0.000000 -2.000000
v 0.200000 3.000000 2.000000
v 0.200000 0.000000 2.000000
v -0.200000 3.000000 -2.000000
v -0.200000 0.000000 -2.000000
v -0.200000 3.000000 2.000000
v -0.200000 0.000000 2.000000
v 0.200000 1.500000 -2.000000
v -0.200000 1.500000 2.000000
v 0.200000 1.500000 2.000000
v -0.200000 1.500000 -2.000000
v 0.200000 0.375000 -2.000000
v 0.200000 0.375000 2.000000
v -0.200000 0.375000 -2.000000
v -0.200000 0.375000 2.000000
v -0.200000 2.625000 2.000000
v 0.200000 2.625000 -2.000000
v 0.200000 2.625000 2.000000
v -0.200000 2.625000 -2.000000
v -0.200000 0.000000 0.000000
v 0.200000 3.000000 0.000000
v -0.200000 3.000000 0.000000
v 0.200000 0.000000 0.000000
v -0.200000 1.500000 0.000000
v -0.200000 0.375000 0.000000
v 0.200000 0.375000 0.000000
v 0.200000 2.625000 0.000000
v -0.200000 2.625000 0.000000
v -0.200000 0.000000 1.700000
v 0.200000 3.000000 1.700000
v 0.200000 1.500000 1.700000
v 0.200000 0.375000 1.700000
v 0.200000 2.625000 1.700000
v -0.200000 3.000000 1.700000
v 0.200000 0.000000 1.700000
v -0.200000 1.500000 1.700000
v -0.200000 0.375000 1.700000
v -0.200000 2.625000 1.700000
v -0.200000 3.000000 -1.700000
v 0.200000 0.000000 -1.700000
v -0.200000 1.500000 -1.700000
v -0.200000 0.375000 -1.700000
v -0.200000 2.625000 -1.700000
v -0.200000 0.000000 -1.700000
v 0.200000 3.000000 -1.700000
v 0.200000 1.500000 -1.700000
v 0.200000 0.375000 -1.700000
v 0.200000 2.625000 -1.700000
v 0.000000 1.500000 -1.700000
v 0.000000 1.500000 0.000000
v 0.000000 0.375000 -1.700000
v 0.000000 0.375000 0.000000
v 0.000000 2.625000 -1.700000
v 0.000000 2.625000 0.000000
v 0.000000 1.500000 1.700000
v 0.000000 0.375000 1.700000
v 0.000000 2.625000 1.700000
vn -0.0000 1.0000 -0.0000
vn -0.0000 -0.0000 1.0000
vn -1.0000 -0.0000 -0.0000
vn -0.0000 -1.0000 -0.0000
vn 1.0000 -0.0000 -0.0000
vn -0.0000 -0.0000 -1.0000
vt 0.875000 0.731250
vt 0.625000 0.750000
vt 0.625000 0.731250
vt 0.593750 1.000000
vt 0.593750 0.750000
vt 0.625000 0.231250
vt 0.593750 0.250000
vt 0.593750 0.231250
vt 0.375000 0.731250
vt 0.125000 0.750000
vt 0.125000 0.731250
vt 0.593750 0.731250
vt 0.625000 0.250000
vt 0.593750 0.500000
vt 0.500000 0.250000
vt 0.406250 0.500000
vt 0.406250 0.250000
vt 0.500000 0.731250
vt 0.406250 0.750000
vt 0.406250 0.731250
vt 0.500000 0.231250
vt 0.406250 0.231250
vt 0.500000 0.750000
vt 0.406250 1.000000
vt 0.375000 1.000000
vt 0.375000 0.750000
vt 0.375000 0.250000
vt 0.375000 0.231250
vt 0.375000 0.500000
vt 0.500000 0.500000
vt 0.500000 1.000000
vt 0.593750 0.018750
vt 0.500000 0.125000
vt 0.500000 0.018750
vt 0.406250 0.518750
vt 0.375000 0.625000
vt 0.375000 0.518750
vt 0.406250 0.018750
vt 0.375000 0.125000
vt 0.375000 0.018750
vt 0.406250 0.125000
vt 0.406250 0.625000
vt 0.625000 0.518750
vt 0.593750 0.625000
vt 0.593750 0.518750
vt 0.125000 0.625000
vt 0.125000 0.518750
vt 0.625000 0.018750
vt 0.593750 0.125000
vt 0.875000 0.518750
vt 0.625000 0.625000
vt 0.625000 0.000000
vt 0.593750 0.000000
vt 0.500000 0.000000
vt 0.406250 0.000000
vt 0.375000 0.000000
vt 0.500000 0.518750
vt 0.875000 0.625000
vt 0.875000 0.500000
vt 0.625000 0.500000
vt 0.125000 0.500000
vt 0.625000 0.125000
vt 0.991124 0.993723
vt 0.500000 0.504774
vt 0.991124 0.504774
vt 0.500000 0.015826
vt 0.991124 0.015826
vt 0.500000 0.993723
vt 0.008876 0.504774
vt 0.008876 0.015826
vt 0.875000 0.750000
vt 0.625000 1.000000
vt 0.008876 0.993723
s 0
usemtl Material
f 35/1/1 3/2/1 31/3/1
f 3/2/2 17/4/2 19/5/2
f 40/6/3 20/7/3 44/8/3
f 36/9/4 8/10/4 30/11/4
f 31/3/5 19/5/5 34/12/5
f 5/13/6 18/14/6 20/7/6
f 12/15/6 13/16/6 15/17/6
f 32/18/5 14/19/5 33/20/5
f 42/21/3 15/17/3 43/22/3
f 11/23/2 16/24/2 14/19/2
f 14/19/2 8/25/2 4/26/2
f 43/22/3 6/27/3 45/28/3
f 33/20/5 4/26/5 36/9/5
f 15/17/6 2/29/6 6/27/6
f 20/7/6 9/30/6 12/15/6
f 34/12/5 11/23/5 32/18/5
f 44/8/3 12/15/3 42/21/3
f 19/5/2 10/31/2 11/23/2
f 39/32/3 25/33/3 37/34/3
f 33/20/6 56/18/6 32/18/6
f 48/35/5 24/36/5 41/37/5
f 38/38/3 21/39/3 30/40/3
f 37/34/3 26/41/3 38/38/3
f 48/35/1 53/42/1 27/42/1
f 46/43/5 28/44/5 49/45/5
f 41/37/4 21/46/4 45/47/4
f 35/48/3 29/49/3 39/32/3
f 40/50/1 22/51/1 46/43/1
f 7/52/3 39/32/3 17/53/3
f 10/54/3 38/38/3 16/55/3
f 16/55/3 30/40/3 8/56/3
f 17/53/3 37/34/3 10/54/3
f 47/57/2 52/35/2 48/35/2
f 27/42/5 36/9/5 24/36/5
f 49/45/2 50/57/2 47/57/2
f 22/51/5 34/12/5 28/44/5
f 24/36/4 30/11/4 21/46/4
f 23/58/1 31/3/1 22/51/1
f 5/59/1 46/43/1 1/60/1
f 2/29/4 45/47/4 6/61/4
f 1/60/5 49/45/5 18/14/5
f 9/30/5 48/35/5 13/16/5
f 13/16/5 41/37/5 2/29/5
f 18/14/5 47/57/5 9/30/5
f 29/49/3 42/21/3 25/33/3
f 26/41/3 45/28/3 21/39/3
f 25/33/3 43/22/3 26/41/3
f 23/62/3 44/8/3 29/49/3
f 32/18/6 58/12/6 34/12/6
f 27/42/1 57/20/1 33/20/1
f 28/44/4 54/45/4 49/45/4
f 34/12/4 55/44/4 28/44/4
f 35/1/1 7/71/1 3/2/1
f 3/2/2 7/72/2 17/4/2
f 40/6/3 5/13/3 20/7/3
f 36/9/4 4/26/4 8/10/4
f 31/3/5 3/2/5 19/5/5
f 5/13/6 1/60/6 18/14/6
f 12/15/6 9/30/6 13/16/6
f 32/18/5 11/23/5 14/19/5
f 42/21/3 12/15/3 15/17/3
f 11/23/2 10/31/2 16/24/2
f 14/19/2 16/24/2 8/25/2
f 43/22/3 15/17/3 6/27/3
f 33/20/5 14/19/5 4/26/5
f 15/17/6 13/16/6 2/29/6
f 20/7/6 18/14/6 9/30/6
f 34/12/5 19/5/5 11/23/5
f 44/8/3 20/7/3 12/15/3
f 19/5/2 17/4/2 10/31/2
f 39/32/3 29/49/3 25/33/3
f 33/20/6 57/20/6 56/18/6
f 48/35/5 27/42/5 24/36/5
f 38/38/3 26/41/3 21/39/3
f 37/34/3 25/33/3 26/41/3
f 48/35/1 52/35/1 53/42/1
f 46/43/5 22/51/5 28/44/5
f 41/37/4 24/36/4 21/46/4
f 35/48/3 23/62/3 29/49/3
f 40/50/1 23/58/1 22/51/1
f 7/52/3 35/48/3 39/32/3
f 10/54/3 37/34/3 38/38/3
f 16/55/3 38/38/3 30/40/3
f 17/53/3 39/32/3 37/34/3
f 47/57/2 50/57/2 52/35/2
f 27/42/5 33/20/5 36/9/5
f 49/45/2 54/45/2 50/57/2
f 22/51/5 31/3/5 34/12/5
f 24/36/4 36/9/4 30/11/4
f 23/58/1 35/1/1 31/3/1
f 5/59/1 40/50/1 46/43/1
f 2/29/4 41/37/4 45/47/4
f 1/60/5 46/43/5 49/45/5
f 9/30/5 47/57/5 48/35/5
f 13/16/5 48/35/5 41/37/5
f 18/14/5 49/45/5 47/57/5
f 29/49/3 44/8/3 42/21/3
f 26/41/3 43/22/3 45/28/3
f 25/33/3 42/21/3 43/22/3
f 23/62/3 40/6/3 44/8/3
f 32/18/6 56/18/6 58/12/6
f 27/42/1 53/42/1 57/20/1
f 28/44/4 55/44/4 54/45/4
f 34/12/4 58/12/4 55/44/4
usemtl mat3
f 54/63/5 51/64/5 50/65/5
f 50/65/5 53/66/5 52/67/5
f 55/68/5 56/69/5 51/64/5
f 51/64/5 57/70/5 53/66/5
f 54/63/5 55/68/5 51/64/5
f 50/65/5 51/64/5 53/66/5
f 55/68/5 58/73/5 56/69/5
f 51/64/5 56/69/5 57/70/5
o Ball
v 2.518782 0.563976 0.000000
v 3.049587 0.969471 0.385648
v 2.316037 0.969470 0.623997
v 1.862672 0.969473 0.000000
v 2.316037 0.969470 -0.623997
v 3.049587 0.969471 -0.385648
v 2.721528 1.625590 0.623997
v 1.987977 1.625590 0.385648
v 1.987977 1.625590 -0.385648
v 2.721528 1.625590 -0.623997
v 3.174892 1.625587 0.000000
v 2.518782 2.031084 0.000000
v 2.399612 0.673529 0.366773
v 2.830779 0.673530 0.226676
v 2.711611 0.911873 0.593453
v 3.142778 0.911875 0.000000
v 2.830779 0.673530 -0.226676
v 2.133131 0.673531 0.000000
v 2.013958 0.911874 0.366775
v 2.399612 0.673529 -0.366773
v 2.013958 0.911874 -0.366775
v 2.711611 0.911873 -0.593453
v 3.216434 1.297530 0.226677
v 3.216434 1.297530 -0.226677
v 2.518782 1.297530 0.733554
v 2.949955 1.297530 0.593457
v 1.821130 1.297530 0.226677
v 2.087610 1.297530 0.593457
v 2.087610 1.297530 -0.593457
v 1.821130 1.297530 -0.226677
v 2.949955 1.297530 -0.593457
v 2.518782 1.297530 -0.733554
v 3.023606 1.683186 0.366775
v 2.325954 1.683187 0.593453
v 1.894786 1.683186 0.000000
v 2.325954 1.683187 -0.593453
v 3.023606 1.683186 -0.366775
v 2.637952 1.921531 0.366773
v 2.904433 1.921529 0.000000
v 2.206785 1.921531 0.226676
v 2.206785 1.921531 -0.226676
v 2.637952 1.921531 -0.366773
vn -0.0000 -1.0000 -0.0000
vn 0.7236 -0.4472 0.5257
vn -0.2764 -0.4472 0.8506
vn -0.8944 -0.4472 -0.0000
vn -0.2764 -0.4472 -0.8506
vn 0.7236 -0.4472 -0.5257
vn 0.2764 0.4472 0.8506
vn -0.7236 0.4472 0.5257
vn -0.7236 0.4472 -0.5257
vn 0.2764 0.4472 -0.8506
vn 0.8944 0.4472 -0.0000
vn -0.0000 1.0000 -0.0000
vn -0.1625 -0.8507 0.5000
vn 0.4253 -0.8507 0.3090
vn 0.2629 -0.5257 0.8090
vn 0.8506 -0.5257 -0.0000
vn 0.4253 -0.8507 -0.3090
vn -0.5257 -0.8507 -0.0000
vn -0.6882 -0.5257 0.5000
vn -0.1625 -0.8507 -0.5000
vn -0.6882 -0.5257 -0.5000
vn 0.2629 -0.5257 -0.8090
vn 0.9511 -0.0000 0.3090
vn 0.9511 -0.0000 -0.3090
vn -0.0000 -0.0000 1.0000
vn 0.5878 -0.0000 0.8090
vn -0.9511 -0.0000 0.3090
vn -0.5878 -0.0000 0.8090
vn -0.5878 -0.0000 -0.8090
vn -0.9511 -0.0000 -0.3090
vn 0.5878 -0.0000 -0.8090
vn -0.0000 -0.0000 -1.0000
vn 0.6882 0.5257 0.5000
vn -0.2629 0.5257 0.8090
vn -0.8506 0.5257 -0.0000
vn -0.2629 0.5257 -0.8090
vn 0.6882 0.5257 -0.5000
vn 0.1625 0.8507 0.5000
vn 0.5257 0.8507 -0.0000
vn -0.4253 0.8507 0.3090
vn -0.4253 0.8507 -0.3090
vn 0.1625 0.8507 -0.5000
vt 0.181819 0.000000
vt 0.227273 0.078731
vt 0.136365 0.078731
vt 0.272728 0.157461
vt 0.318182 0.078731
vt 0.363637 0.157461
vt 0.909091 0.000000
vt 0.954545 0.078731
vt 0.863636 0.078731
vt 0.727273 0.000000
vt 0.772727 0.078731
vt 0.681818 0.078731
vt 0.545455 0.000000
vt 0.590909 0.078731
vt 0.500000 0.078731
vt 0.318182 0.236191
vt 0.090910 0.157461
vt 0.181819 0.157461
vt 0.136365 0.236191
vt 0.818182 0.157461
vt 0.909091 0.157461
vt 0.863636 0.236191
vt 0.636364 0.157461
vt 0.727273 0.157461
vt 0.681818 0.236191
vt 0.454546 0.157461
vt 0.545455 0.157461
vt 0.500000 0.236191
vt 0.227273 0.236191
vt 0.045455 0.236191
vt 0.772727 0.236191
vt 0.590909 0.236191
vt 0.409092 0.236191
vt 0.181819 0.314921
vt 0.272728 0.314921
vt 0.227273 0.393651
vt 0.000000 0.314921
vt 0.090910 0.314921
vt 0.045455 0.393651
vt 0.727273 0.314921
vt 0.818182 0.314921
vt 0.772727 0.393651
vt 0.545455 0.314921
vt 0.636364 0.314921
vt 0.590909 0.393651
vt 0.363637 0.314921
vt 0.454546 0.314921
vt 0.409092 0.393651
vt 0.500000 0.393651
vt 0.454546 0.472382
vt 0.681818 0.393651
vt 0.636364 0.472382
vt 0.863636 0.393651
vt 0.818182 0.472382
vt 0.909091 0.314921
vt 0.136365 0.393651
vt 0.090910 0.472382
vt 0.318182 0.393651
vt 0.272728 0.472382
vt 0.954545 0.236191
vt 1.000000 0.157461
vt 0.409092 0.078731
vt 0.363637 0.000000
s 1
usemtl æè´¨.003
f 59/74/7 72/75/20 71/76/19
f 60/77/8 72/78/20 74/79/22
f 59/80/7 71/81/19 76/82/24
f 59/83/7 76/84/24 78/85/26
f 59/86/7 78/87/26 75/88/23
f 60/77/8 74/79/22 81/89/29
f 61/90/9 73/91/21 83/92/31
f 62/93/10 77/94/25 85/95/33
f 63/96/11 79/97/27 87/98/35
f 64/99/12 80/100/28 89/101/37
f 60/77/8 81/89/29 84/102/32
f 61/90/9 83/92/31 86/103/34
f 62/93/10 85/95/33 88/104/36
f 63/96/11 87/98/35 90/105/38
f 64/99/12 89/101/37 82/106/30
f 65/107/13 91/108/39 96/109/44
f 66/110/14 92/111/40 98/112/46
f 67/113/15 93/114/41 99/115/47
f 68/116/16 94/117/42 100/118/48
f 69/119/17 95/120/43 97/121/45
f 97/121/45 100/122/48 70/123/18
f 97/121/45 95/120/43 100/122/48
f 95/120/43 68/116/16 100/122/48
f 100/118/48 99/124/47 70/125/18
f 100/118/48 94/117/42 99/124/47
f 94/117/42 67/113/15 99/124/47
f 99/115/47 98/126/46 70/127/18
f 99/115/47 93/114/41 98/126/46
f 93/114/41 66/128/14 98/126/46
f 98/112/46 96/129/44 70/130/18
f 98/112/46 92/111/40 96/129/44
f 92/111/40 65/107/13 96/129/44
f 96/109/44 97/131/45 70/132/18
f 96/109/44 91/108/39 97/131/45
f 91/108/39 69/119/17 97/131/45
f 82/106/30 95/120/43 69/119/17
f 90/105/38 94/117/42 68/116/16
f 90/105/38 87/98/35 94/117/42
f 88/104/36 93/114/41 67/113/15
f 83/92/31 65/107/13 92/111/40
f 84/102/32 81/89/29 91/108/39
f 89/101/37 90/105/38 68/116/16
f 89/101/37 80/100/28 90/105/38
f 80/100/28 63/96/11 90/105/38
f 87/98/35 79/97/27 88/104/36
f 79/97/27 62/93/10 88/104/36
f 85/95/33 86/133/34 66/128/14
f 85/95/33 77/94/25 86/133/34
f 77/94/25 61/134/9 86/133/34
f 83/92/31 73/91/21 84/102/32
f 73/91/21 60/77/8 84/102/32
f 81/89/29 74/79/22 82/106/30
f 74/79/22 64/99/12 82/106/30
f 75/88/23 80/100/28 64/99/12
f 75/88/23 78/87/26 80/100/28
f 78/87/26 63/96/11 80/100/28
f 78/85/26 79/97/27 63/96/11
f 78/85/26 76/84/24 79/97/27
f 76/84/24 62/93/10 79/97/27
f 76/82/24 77/94/25 62/93/10
f 76/82/24 71/81/19 77/94/25
f 71/81/19 61/134/9 77/94/25
f 74/79/22 75/135/23 64/99/12
f 74/79/22 72/78/20 75/135/23
f 72/78/20 59/136/7 75/135/23
f 71/76/19 73/91/21 61/90/9
f 71/76/19 72/75/20 73/91/21
f 72/75/20 60/77/8 73/91/21
usemtl mat2
f 82/106/30 89/101/37 95/120/43
f 89/101/37 68/116/16 95/120/43
f 87/98/35 67/113/15 94/117/42
f 88/104/36 85/95/33 93/114/41
f 85/95/33 66/128/14 93/114/41
f 86/103/34 92/111/40 66/110/14
f 86/103/34 83/92/31 92/111/40
f 84/102/32 91/108/39 65/107/13
f 81/89/29 69/119/17 91/108/39
f 87/98/35 88/104/36 67/113/15
f 83/92/31 84/102/32 65/107/13
f 81/89/29 82/106/30 69/119/17
